# xmcd
#
# Track frame offsets:
#	150
#	17446
#	32120
#	46258
#	64047
#	82339
#	95711
#	112024
#	126534
#	142771
#	158104
#	172554
#	189916
#	207631
#	224675
#	237456
#	250437
#	264413
#	284130
#
# Disc length: 4022 seconds
#
# Revision: 2
# Processed by: cddbd v1.5.2PL0 Copyright (c) Steve Scherf et al.
# Submitted via: audiograbber 1.83.01
#
DISCID=210fb413
DTITLE=Various Artist - Promo Only Country Radio September 2007
DYEAR=2007
DGENRE=Country
TTITLE0=Brad Paisley - Online (Single Edit)
TTITLE1=Phil Vassar - This Is My Life
TTITLE2=Jo Dee Messina - Biker Chick
TTITLE3=Rascal Flatts - Take Me There
TTITLE4=Billy Currington - Tangled Up
TTITLE5=Chris Cagle - What Kinda Gone
TTITLE6=Carolina Rain - Dealin'
TTITLE7=Emerson Drive - You Still Own Me
TTITLE8=Gary Allan - Watching Airplanes
TTITLE9=Jennifer Hanson - Joyride
TTITLE10=Jake Owen - Something About A Woman
TTITLE11=Annie Sims - Everything I Know About Leavin'
TTITLE12=Clint Black - The Strong One
TTITLE13=Ryan Weaver - Talkin' Part
TTITLE14=Rio Grand - That's My Memory (Full English Version)
TTITLE15=John Keaton - This Ain't No Yard Sale
TTITLE16=Doug Stone - Nice Problem
TTITLE17=Devon Allen Johnson - Bet He Didn't Say That
TTITLE18=Leah Faith - Girl In The Mirror
EXTD=
EXTT0=
EXTT1=
EXTT2=
EXTT3=
EXTT4=
EXTT5=
EXTT6=
EXTT7=
EXTT8=
EXTT9=
EXTT10=
EXTT11=
EXTT12=
EXTT13=
EXTT14=
EXTT15=
EXTT16=
EXTT17=
EXTT18=
PLAYORDER=
